# xmcd CD database file
#
# Track frame offsets:
#	150
#	17692
#	36536
#	62216
#	84157
#	100421
#	121625
#	137064
#	158019
#	178981
#	201339
#	223743
#	250780
#	273720
#	294838
#	316393
#	335242
#
# Disc length: 4723 seconds
#
# Revision: 2
# Processed by: cddbd v1.5.2PL0 Copyright (c) Steve Scherf et al.
# Submitted via: CDex 1.40Release
#
DISCID=03127111
DTITLE=Savage Garden - Truly Madly Completely - The Best Of Savage Garden
DYEAR=2005
DGENRE=Pop
TTITLE0=I Want You
TTITLE1=I Knew I Loved You
TTITLE2=To The Moon and Back
TTITLE3=Hold Me
TTITLE4=Santa Monica
TTITLE5=Crash And Burn
TTITLE6=Break Me Shake Me
TTITLE7=Truly Madly Deeply
TTITLE8=The Animal Song
TTITLE9=Affirmation
TTITLE10=So Beautiful
TTITLE11=California
TTITLE12=I Don't Care
TTITLE13=I'll Bet He Was Cool
TTITLE14=Love Can Move You
TTITLE15=Fire Inside The Man
TTITLE16=This Side Of Me
EXTD=YEAR: 2005 ID3G: 13
EXTT0=
EXTT1=
EXTT2=
EXTT3=
EXTT4=
EXTT5=
EXTT6=
EXTT7=
EXTT8=
EXTT9=
EXTT10=
EXTT11=
EXTT12=
EXTT13=
EXTT14=
EXTT15=
EXTT16=
PLAYORDER=
